<svg width="21.381" height="13.554" viewBox="0 0 21.381 13.554"><path d="M18.029 7.149c-.075-.715 1.264-2.037 1.96-3.041.847-1.223 1.765-2.694 1.236-3.147-.261-.225-1.269-.215-2.269-.21-1.021.006-2.034.012-2.269.105-.217.086-.705 1.284-1.34 2.518-.718 1.396-1.604 2.737-2.165 2.729-.727-.012-.56-2.306-.516-3.988.028-1.116-.15-1.465-.311-1.574-.388-.265-1.443-.524-1.443-.524S7.758-.228 7.306 1.17c.601.08 1.638-.115 1.237 4.197-.02.21-.483 1.987-1.959-.418C6.22 4.354 4.803.764 4.315.75 2.678.705 1.073.636.5.96c-.522.296.707 2.777 2.784 6.085 1.698 2.707 3.497 4.82 6.6 5.352.579.061 2.106.131 2.577-.104.328-.164-.07-2.51 1.031-2.729.496-.098 2.377 2.438 3.094 2.729.434.176 1.392.24 2.371.209 1.061-.035 2.256.094 2.372-.629.259-1.619-3.195-3.722-3.3-4.724z" fill="#fff"/></svg>