<?xml version="1.0" encoding="iso-8859-1"?>
<!-- Generator: Adobe Illustrator 16.0.3, SVG Export Plug-In . SVG Version: 6.00 Build 0)  -->
<!DOCTYPE svg PUBLIC "-//W3C//DTD SVG 1.1//EN" "http://www.w3.org/Graphics/SVG/1.1/DTD/svg11.dtd">
<svg version="1.1" id="Layer_1" xmlns="http://www.w3.org/2000/svg" xmlns:xlink="http://www.w3.org/1999/xlink" x="0px" y="0px"
	 width="14.047px" height="15.057px" viewBox="0 0 14.047 15.057" style="enable-background:new 0 0 14.047 15.057;"
	 xml:space="preserve">
<g id="Shape_7_copy_7">
	<g>
		<path style="fill:#3D3D3D;" d="M1.561,13.495c0,0.861,0.699,1.561,1.561,1.561h7.805c0.861,0,1.561-0.699,1.561-1.561V4.933H1.561
			V13.495z M13.267,1.999H9.514V0.58c0-0.862-0.699-0.509-1.562-0.509H6.023c-0.861,0-1.561-0.354-1.561,0.509v1.419H0.78
			C0.35,1.999,0,2.348,0,2.779c0,0.432,0.35,1.173,0.78,1.173h12.486c0.431,0,0.78-0.741,0.78-1.173
			C14.047,2.348,13.697,1.999,13.267,1.999z"/>
	</g>
</g>
</svg>
