<?xml version="1.0" encoding="iso-8859-1"?>
<!-- Generator: Adobe Illustrator 16.0.3, SVG Export Plug-In . SVG Version: 6.00 Build 0)  -->
<!DOCTYPE svg PUBLIC "-//W3C//DTD SVG 1.1//EN" "http://www.w3.org/Graphics/SVG/1.1/DTD/svg11.dtd">
<svg version="1.1" id="Layer_1" xmlns="http://www.w3.org/2000/svg" xmlns:xlink="http://www.w3.org/1999/xlink" x="0px" y="0px"
	 width="37.688px" height="47.167px" viewBox="0 0 37.688 47.167" style="enable-background:new 0 0 37.688 47.167;"
	 xml:space="preserve">
<g id="Shape_8">
	<g>
		<path style="fill:#FFFFFF;" d="M31.6,0.655c-0.31-0.309-0.811-0.309-1.12,0L8.015,23.12c-0.31,0.31-0.31,0.812,0,1.121
			c0.31,0.309,0.812,0.309,1.121,0L31.6,1.776C31.909,1.466,31.909,0.964,31.6,0.655z"/>
	</g>
</g>
<g id="Shape_8_copy">
	<g>
		<path style="fill:#FFFFFF;" d="M31.6,45.584L9.136,23.12c-0.31-0.31-0.812-0.31-1.121,0s-0.31,0.812,0,1.121l22.465,22.464
			c0.31,0.31,0.811,0.31,1.12,0S31.909,45.893,31.6,45.584z"/>
	</g>
</g>
</svg>
