<?xml version="1.0" encoding="iso-8859-1"?>
<!-- Generator: Adobe Illustrator 16.0.3, SVG Export Plug-In . SVG Version: 6.00 Build 0)  -->
<!DOCTYPE svg PUBLIC "-//W3C//DTD SVG 1.1//EN" "http://www.w3.org/Graphics/SVG/1.1/DTD/svg11.dtd">
<svg version="1.1" id="Layer_1" xmlns="http://www.w3.org/2000/svg" xmlns:xlink="http://www.w3.org/1999/xlink" x="0px" y="0px"
	 width="37.688px" height="47.167px" viewBox="0 0 37.688 47.167" style="enable-background:new 0 0 37.688 47.167;"
	 xml:space="preserve">
<g id="Shape_8">
	<g>
		<path style="fill:#FFFFFF;" d="M31.6,23.12c-0.31-0.309-0.812-0.309-1.121,0L8.015,45.584c-0.31,0.31-0.31,0.812,0,1.121
			c0.31,0.309,0.811,0.309,1.12,0L31.6,24.241C31.909,23.931,31.909,23.429,31.6,23.12z"/>
	</g>
</g>
<g id="Shape_8_copy">
	<g>
		<path style="fill:#FFFFFF;" d="M31.6,23.12L9.135,0.655c-0.31-0.31-0.811-0.31-1.12,0s-0.31,0.812,0,1.12l22.464,22.465
			c0.31,0.31,0.812,0.31,1.121,0S31.909,23.429,31.6,23.12z"/>
	</g>
</g>
</svg>
