<?xml version="1.0" encoding="iso-8859-1"?>
<!-- Generator: Adobe Illustrator 16.0.3, SVG Export Plug-In . SVG Version: 6.00 Build 0)  -->
<!DOCTYPE svg PUBLIC "-//W3C//DTD SVG 1.1//EN" "http://www.w3.org/Graphics/SVG/1.1/DTD/svg11.dtd">
<svg version="1.1" id="Layer_1" xmlns="http://www.w3.org/2000/svg" xmlns:xlink="http://www.w3.org/1999/xlink" x="0px" y="0px"
	 width="10.595px" height="17.626px" viewBox="0 0 10.595 17.626" style="enable-background:new 0 0 10.595 17.626;"
	 xml:space="preserve">
<g id="Shape_16">
	<g>
		<path style="fill:#FFFFFF;" d="M9.663,0.604L7.36,0.6c-2.586,0-4.258,1.623-4.258,4.135v1.906H0.787
			c-0.2,0-0.361,0.153-0.361,0.343v2.761c0,0.189,0.162,0.344,0.361,0.344h2.315v6.969h3.745v-6.969h2.707
			c0.199,0,0.361-0.154,0.361-0.344l0.002-2.761c0-0.091-0.039-0.178-0.105-0.242c-0.068-0.064-0.16-0.101-0.258-0.101H6.847V5.024
			c0-0.776,0.195-1.171,1.266-1.171l1.551-0.001c0.199,0,0.361-0.153,0.361-0.342V0.945C10.024,0.757,9.862,0.604,9.663,0.604z"/>
	</g>
</g>
</svg>
