<?xml version="1.0" encoding="iso-8859-1"?>
<!-- Generator: Adobe Illustrator 16.0.3, SVG Export Plug-In . SVG Version: 6.00 Build 0)  -->
<!DOCTYPE svg PUBLIC "-//W3C//DTD SVG 1.1//EN" "http://www.w3.org/Graphics/SVG/1.1/DTD/svg11.dtd">
<svg version="1.1" id="Layer_1" xmlns="http://www.w3.org/2000/svg" xmlns:xlink="http://www.w3.org/1999/xlink" x="0px" y="0px"
	 width="16.513px" height="16.577px" viewBox="0 0 16.513 16.577" style="enable-background:new 0 0 16.513 16.577;"
	 xml:space="preserve">
<g id="Shape_15">
	<g>
		<path style="fill:#FFFFFF;" d="M5.461,10.046l-3.866,3.865v-3.061H0.261v5.339h5.338v-1.334H2.54l3.865-3.866L5.461,10.046z
			 M5.599,1.508V0.174H0.261v5.338h1.334v-3.06l3.866,3.866l0.943-0.944L2.54,1.508H5.599z M10.938,0.174v1.334h3.061l-3.866,3.866
			l0.944,0.944l3.865-3.866v3.06h1.335V0.174H10.938z M14.942,13.912l-3.865-3.865l-0.944,0.943l3.866,3.866h-3.061v1.334h5.339
			v-5.339h-1.335V13.912z"/>
	</g>
</g>
</svg>
