<?xml version="1.0" encoding="iso-8859-1"?>
<!-- Generator: Adobe Illustrator 16.0.3, SVG Export Plug-In . SVG Version: 6.00 Build 0)  -->
<!DOCTYPE svg PUBLIC "-//W3C//DTD SVG 1.1//EN" "http://www.w3.org/Graphics/SVG/1.1/DTD/svg11.dtd">
<svg version="1.1" id="Layer_1" xmlns="http://www.w3.org/2000/svg" xmlns:xlink="http://www.w3.org/1999/xlink" x="0px" y="0px"
	 width="20.172px" height="12.472px" viewBox="0 0 20.172 12.472" style="enable-background:new 0 0 20.172 12.472;"
	 xml:space="preserve">
<g id="Shape_17">
	<g>
		<path style="fill:#FFFFFF;" d="M0.091,1.514v9.323l6.815-4.668L0.091,1.514z M10.116,7.53h0.004c0.15,0,0.3-0.045,0.421-0.125
			l0.032-0.021c0.007-0.006,0.015-0.01,0.022-0.014l0.381-0.32l9.114-6.868h-20l9.554,7.19C9.765,7.471,9.936,7.53,10.116,7.53z
			 M11.118,8.02c-0.271,0.227-0.627,0.352-0.999,0.352c-0.375,0-0.729-0.125-1-0.35L7.559,6.713l-7.468,5.455h20L12.63,6.752
			L11.118,8.02z M20.091,10.836V1.514l-6.809,4.692L20.091,10.836z"/>
	</g>
</g>
</svg>
