<?xml version="1.0" encoding="iso-8859-1"?>
<!-- Generator: Adobe Illustrator 16.0.3, SVG Export Plug-In . SVG Version: 6.00 Build 0)  -->
<!DOCTYPE svg PUBLIC "-//W3C//DTD SVG 1.1//EN" "http://www.w3.org/Graphics/SVG/1.1/DTD/svg11.dtd">
<svg version="1.1" id="Layer_1" xmlns="http://www.w3.org/2000/svg" xmlns:xlink="http://www.w3.org/1999/xlink" x="0px" y="0px"
	 width="17.245px" height="17.022px" viewBox="0 0 17.245 17.022" style="enable-background:new 0 0 17.245 17.022;"
	 xml:space="preserve">
<g id="Shape_8_copy_3">
	<g>
		<path style="fill:#FFFFFF;" d="M16.737,15.897L1.145,0.304c-0.243-0.242-0.636-0.242-0.878,0c-0.242,0.243-0.242,0.636,0,0.878
			l15.592,15.592c0.242,0.242,0.636,0.242,0.878,0S16.979,16.139,16.737,15.897z"/>
	</g>
</g>
<g id="a">
	<g>
		<path style="fill:#FFFFFF;" d="M16.97,0.304c-0.242-0.242-0.636-0.242-0.878,0L0.5,15.897c-0.242,0.242-0.242,0.635,0,0.877
			s0.636,0.242,0.878,0L16.97,1.182C17.212,0.94,17.212,0.547,16.97,0.304z"/>
	</g>
</g>
</svg>
