<?xml version="1.0" encoding="iso-8859-1"?>
<!-- Generator: Adobe Illustrator 16.0.3, SVG Export Plug-In . SVG Version: 6.00 Build 0)  -->
<!DOCTYPE svg PUBLIC "-//W3C//DTD SVG 1.1//EN" "http://www.w3.org/Graphics/SVG/1.1/DTD/svg11.dtd">
<svg version="1.1" id="Layer_1" xmlns="http://www.w3.org/2000/svg" xmlns:xlink="http://www.w3.org/1999/xlink" x="0px" y="0px"
	 width="21.381px" height="13.554px" viewBox="0 0 21.381 13.554" style="enable-background:new 0 0 21.381 13.554;"
	 xml:space="preserve">
<g id="Shape_18">
	<g>
		<path style="fill:#FFFFFF;" d="M18.029,7.149c-0.075-0.715,1.264-2.037,1.96-3.041c0.847-1.223,1.765-2.694,1.236-3.147
			c-0.261-0.225-1.269-0.215-2.269-0.21c-1.021,0.006-2.034,0.012-2.269,0.105c-0.217,0.086-0.705,1.284-1.34,2.518
			c-0.718,1.396-1.604,2.737-2.165,2.729c-0.727-0.012-0.56-2.306-0.516-3.988c0.028-1.116-0.15-1.465-0.311-1.574
			c-0.388-0.265-1.443-0.524-1.443-0.524S7.758-0.228,7.306,1.17c0.601,0.08,1.638-0.115,1.237,4.197
			C8.523,5.577,8.06,7.354,6.584,4.949C6.22,4.354,4.803,0.764,4.315,0.75C2.678,0.705,1.073,0.636,0.5,0.96
			c-0.522,0.296,0.707,2.777,2.784,6.085c1.698,2.707,3.497,4.82,6.6,5.352c0.579,0.061,2.106,0.131,2.577-0.104
			c0.328-0.164-0.07-2.51,1.031-2.729c0.496-0.098,2.377,2.438,3.094,2.729c0.434,0.176,1.392,0.24,2.371,0.209
			c1.061-0.035,2.256,0.094,2.372-0.629C21.588,10.254,18.134,8.151,18.029,7.149z"/>
	</g>
</g>
</svg>
